# xmcd
#
# Track frame offsets: 
#        150
#        12966
#        24595
#        36190
#        50039
#        63608
#        73408
#        85006
#        96528
#        110365
#        125725
#        140364
#        152813
#        163643
#        177732
#        190419
#
# Disc length: 2697 seconds
#
# Revision: 3
# Processed by: cddbd v1.5.2PL0 Copyright (c) Steve Scherf et al.
# Submitted via: ExactAudioCopy v1.3
#
DISCID=ef0a8710
DTITLE=Solomon Burke - The Definitive Soul Collection - CD 1
DYEAR=2006
DGENRE=Soul
TTITLE0=Just Out Of Reach (Of My Own Two Arms)
TTITLE1=Cry To Me
TTITLE2=Down In The Valley
TTITLE3=I'm Hanging Up My Heart For You
TTITLE4=Go Back To Him
TTITLE5=Home In Your Heart
TTITLE6=If You Need Me
TTITLE7=Can't Nobody Love You
TTITLE8=You're Good For Me
TTITLE9=He'll Have To Go
TTITLE10=Goodbye Baby (Baby Goodbye)
TTITLE11=Everybody Needs Somebody To Love
TTITLE12=Looking For My Baby
TTITLE13=Yes I Do
TTITLE14=The Price
TTITLE15=Tonight's The Night
EXTD=
EXTT0=
EXTT1=
EXTT2=
EXTT3=
EXTT4=
EXTT5=
EXTT6=
EXTT7=
EXTT8=
EXTT9=
EXTT10=
EXTT11=
EXTT12=
EXTT13=
EXTT14=
EXTT15=
PLAYORDER=
